<svg width="16" height="20" viewBox="0 0 16 20" fill="none" xmlns="http://www.w3.org/2000/svg">
<path d="M5 2.99989C4.73478 2.99989 4.48043 3.10524 4.29289 3.29278C4.10536 3.48032 4 3.73467 4 3.99989C4 4.2651 4.10536 4.51946 4.29289 4.70699C4.48043 4.89453 4.73478 4.99989 5 4.99989C5.26522 4.99989 5.51957 4.89453 5.70711 4.70699C5.89464 4.51946 6 4.2651 6 3.99989C6 3.73467 5.89464 3.48032 5.70711 3.29278C5.51957 3.10524 5.26522 2.99989 5 2.99989ZM2.17 2.99989C2.3766 2.41435 2.75974 1.90732 3.2666 1.54868C3.77346 1.19003 4.37909 0.997437 5 0.997437C5.62091 0.997437 6.22654 1.19003 6.7334 1.54868C7.24026 1.90732 7.6234 2.41435 7.83 2.99989H15C15.2652 2.99989 15.5196 3.10524 15.7071 3.29278C15.8946 3.48032 16 3.73467 16 3.99989C16 4.2651 15.8946 4.51946 15.7071 4.70699C15.5196 4.89453 15.2652 4.99989 15 4.99989H7.83C7.6234 5.58542 7.24026 6.09245 6.7334 6.4511C6.22654 6.80974 5.62091 7.00234 5 7.00234C4.37909 7.00234 3.77346 6.80974 3.2666 6.4511C2.75974 6.09245 2.3766 5.58542 2.17 4.99989H1C0.734784 4.99989 0.48043 4.89453 0.292893 4.70699C0.105357 4.51946 0 4.2651 0 3.99989C0 3.73467 0.105357 3.48032 0.292893 3.29278C0.48043 3.10524 0.734784 2.99989 1 2.99989H2.17ZM11 8.99989C10.7348 8.99989 10.4804 9.10524 10.2929 9.29278C10.1054 9.48032 10 9.73467 10 9.99989C10 10.2651 10.1054 10.5195 10.2929 10.707C10.4804 10.8945 10.7348 10.9999 11 10.9999C11.2652 10.9999 11.5196 10.8945 11.7071 10.707C11.8946 10.5195 12 10.2651 12 9.99989C12 9.73467 11.8946 9.48032 11.7071 9.29278C11.5196 9.10524 11.2652 8.99989 11 8.99989ZM8.17 8.99989C8.3766 8.41435 8.75974 7.90732 9.2666 7.54868C9.77346 7.19003 10.3791 6.99744 11 6.99744C11.6209 6.99744 12.2265 7.19003 12.7334 7.54868C13.2403 7.90732 13.6234 8.41435 13.83 8.99989H15C15.2652 8.99989 15.5196 9.10524 15.7071 9.29278C15.8946 9.48032 16 9.73467 16 9.99989C16 10.2651 15.8946 10.5195 15.7071 10.707C15.5196 10.8945 15.2652 10.9999 15 10.9999H13.83C13.6234 11.5854 13.2403 12.0925 12.7334 12.4511C12.2265 12.8097 11.6209 13.0023 11 13.0023C10.3791 13.0023 9.77346 12.8097 9.2666 12.4511C8.75974 12.0925 8.3766 11.5854 8.17 10.9999H1C0.734784 10.9999 0.48043 10.8945 0.292893 10.707C0.105357 10.5195 0 10.2651 0 9.99989C0 9.73467 0.105357 9.48032 0.292893 9.29278C0.48043 9.10524 0.734784 8.99989 1 8.99989H8.17ZM5 14.9999C4.73478 14.9999 4.48043 15.1052 4.29289 15.2928C4.10536 15.4803 4 15.7347 4 15.9999C4 16.2651 4.10536 16.5195 4.29289 16.707C4.48043 16.8945 4.73478 16.9999 5 16.9999C5.26522 16.9999 5.51957 16.8945 5.70711 16.707C5.89464 16.5195 6 16.2651 6 15.9999C6 15.7347 5.89464 15.4803 5.70711 15.2928C5.51957 15.1052 5.26522 14.9999 5 14.9999ZM2.17 14.9999C2.3766 14.4144 2.75974 13.9073 3.2666 13.5487C3.77346 13.19 4.37909 12.9974 5 12.9974C5.62091 12.9974 6.22654 13.19 6.7334 13.5487C7.24026 13.9073 7.6234 14.4144 7.83 14.9999H15C15.2652 14.9999 15.5196 15.1052 15.7071 15.2928C15.8946 15.4803 16 15.7347 16 15.9999C16 16.2651 15.8946 16.5195 15.7071 16.707C15.5196 16.8945 15.2652 16.9999 15 16.9999H7.83C7.6234 17.5854 7.24026 18.0925 6.7334 18.4511C6.22654 18.8097 5.62091 19.0023 5 19.0023C4.37909 19.0023 3.77346 18.8097 3.2666 18.4511C2.75974 18.0925 2.3766 17.5854 2.17 16.9999H1C0.734784 16.9999 0.48043 16.8945 0.292893 16.707C0.105357 16.5195 0 16.2651 0 15.9999C0 15.7347 0.105357 15.4803 0.292893 15.2928C0.48043 15.1052 0.734784 14.9999 1 14.9999H2.17Z" fill="black"/>
</svg>
